HIERARCHY
ROOT Hips
{
  OFFSET 279.157 85.6768 304.565
  CHANNELS 6 Xposition Yposition Zposition Zrotation Xrotation Yrotation
  JOINT LeftUpLeg
  {
    OFFSET 8.64259 1.95398 -2.38835
    CHANNELS 3 Zrotation Xrotation Yrotation
    JOINT LeftLeg
    {
      OFFSET 43.7702 0 0
      CHANNELS 3 Zrotation Xrotation Yrotation
      JOINT LeftFoot
      {
        OFFSET 40.6238 0 0
        CHANNELS 3 Zrotation Xrotation Yrotation
        JOINT LeftToeBase
        {
          OFFSET 12.7242 0 0
          CHANNELS 3 Zrotation Xrotation Yrotation
          End Site
          {
            OFFSET 0 0 0
          }
        }
      }
    }
  }
  JOINT RightUpLeg
  {
    OFFSET -8.2249 1.95398 -2.59336
    CHANNELS 3 Zrotation Xrotation Yrotation
    JOINT RightLeg
    {
      OFFSET 43.5653 0 0
      CHANNELS 3 Zrotation Xrotation Yrotation
      JOINT RightFoot
      {
        OFFSET 40.6238 0 0
        CHANNELS 3 Zrotation Xrotation Yrotation
        JOINT RightToeBase
        {
          OFFSET 12.7242 0 0
          CHANNELS 3 Zrotation Xrotation Yrotation
          End Site
          {
            OFFSET 0 0 0
          }
        }
      }
    }
  }
  JOINT Spine
  {
    OFFSET 0.165834 0.87714 6.61349
    CHANNELS 3 Zrotation Xrotation Yrotation
    JOINT Spine1
    {
      OFFSET 7.38963 1.71661e-005 0
      CHANNELS 3 Zrotation Xrotation Yrotation
      JOINT Spine2
      {
        OFFSET 11.9445 1.14441e-005 0
        CHANNELS 3 Zrotation Xrotation Yrotation
        JOINT Spine3
        {
          OFFSET 14.7254 4.19617e-005 0
          CHANNELS 3 Zrotation Xrotation Yrotation
          JOINT Spine4
          {
            OFFSET 10.9679 0 0
            CHANNELS 3 Zrotation Xrotation Yrotation
            JOINT RightShoulder
            {
              OFFSET 2.46616 -1.6653 3.69651
              CHANNELS 3 Zrotation Xrotation Yrotation
              JOINT RightArm
              {
                OFFSET 13.0012 0 0
                CHANNELS 3 Zrotation Xrotation Yrotation
                JOINT RightForeArm
                {
                  OFFSET 28.7848 1.52588e-005 0
                  CHANNELS 3 Zrotation Xrotation Yrotation
                  JOINT RightHand
                  {
                    OFFSET 26.5688 1.52588e-005 0
                    CHANNELS 3 Zrotation Xrotation Yrotation
                    End Site
                    {
                      OFFSET 0 0 0
                    }
                  }
                }
              }
            }
            JOINT LeftShoulder
            {
              OFFSET 2.38034 -1.29275 -3.7523
              CHANNELS 3 Zrotation Xrotation Yrotation
              JOINT LeftArm
              {
                OFFSET 16.3182 6.10351e-005 0
                CHANNELS 3 Zrotation Xrotation Yrotation
                JOINT LeftForeArm
                {
                  OFFSET 27.0901 0 0
                  CHANNELS 3 Zrotation Xrotation Yrotation
                  JOINT LeftHand
                  {
                    OFFSET 24.5451 1.52588e-005 0
                    CHANNELS 3 Zrotation Xrotation Yrotation
                    End Site
                    {
                      OFFSET 0 0 0
                    }
                  }
                }
              }
            }
            JOINT Neck
            {
              OFFSET 5.0226 -0.0266342 0
              CHANNELS 3 Zrotation Xrotation Yrotation
              JOINT Head
              {
                OFFSET 6.69364 2.86102e-005 0
                CHANNELS 3 Zrotation Xrotation Yrotation
                End Site
                {
                  OFFSET 0 0 0
                }
              }
            }
          }
        }
      }
    }
  }
}
MOTION
Frames:	13
Frame Time:	0.0416667
33.4265 102.775 -327.494 151.019 -67.6679 145.463 -166.641 -20.4901 96.8828 -6.49576 28.0343 -3.13924 69.6482 7.2258 0.643034 18.6678 -8.58171 8.55386 172.102 -26.8601 88.2642 -3.31336 3.94041 -1.17947 69.5982 -4.12858 0.545099 23.9471 0.84775 4.68091 -2.44026 7.36392 -87.1469 12.2096 -3.50002 6.08391 0.528421 -3.2294 6.23137 -21.968 -5.16475 4.75442 -1.95536 -5.16475 4.75441 61.7996 -44.413 -145.101 46.2991 -4.09255 11.3462 -6.01702 -24.6592 -13.9218 -19.2509 0.0381709 -14.2134 -80.6999 -10.2322 88.7915 -57.1944 -6.02948 19.2125 12.3517 30.1702 -20.2631 0.748833 -0.289898 -11.6778 -17.2904 7.74785 -32.6507 -3.12324 7.25192 18.8522 
32.7242 102.8 -327.611 152.274 -69.8038 146.373 -168.332 -19.8179 95.0103 -5.62482 24.7584 -2.26854 69.1251 6.89868 0.212596 19.8428 -7.88279 8.77005 171.65 -23.9018 87.6094 -5.47684 1.72648 -0.941774 70.2374 -4.27617 0.208157 24.0047 0.876595 4.41374 -2.35406 7.30582 -87.369 12.3228 -3.43047 5.64008 0.643512 -3.17932 5.78503 -21.8636 -4.96545 4.35113 -1.85096 -4.96544 4.35113 64.5114 -43.1268 -142.171 46.0822 -5.49914 10.0317 -2.40092 -23.2681 -14.1963 -21.8296 -0.076549 -11.7505 -80.303 -13.0306 90.2955 -56.0188 -4.43351 17.5225 12.1775 29.193 -20.6075 -1.88695 -0.119584 -11.3526 -15.9123 7.41997 -29.9467 -2.77772 7.37285 17.4121 
31.8324 102.791 -327.976 154.534 -73.2426 148.479 -170.259 -17.1093 92.9571 -6.42322 20.7235 -1.49516 69.0771 6.96452 0.202695 21.3678 -7.11145 9.46342 171.497 -19.2796 87.246 -8.43237 -1.54153 -0.703062 70.9511 -4.6364 -0.709574 23.9514 0.876183 4.50956 -2.27451 7.20077 -87.7296 12.5296 -3.43787 4.93364 0.853274 -3.2177 5.07978 -21.6719 -4.76072 3.67386 -1.65923 -4.76072 3.67386 67.8342 -40.2806 -139.231 45.625 -7.69534 7.6273 3.08944 -26.2261 -13.7995 -26.5142 -0.396934 -9.78832 -79.3171 -17.9646 93.3165 -53.1484 -2.58589 15.2196 11.3244 27.3909 -20.1694 -1.1603 -0.173208 -11.9762 -13.6065 7.36764 -24.3976 -2.97021 7.81192 14.438 
30.8455 102.735 -328.53 162.291 -76.1485 156.157 -172.047 -15.1275 91.1968 -7.3001 15.7525 -0.42956 68.9889 6.99481 -0.280122 22.1013 -7.45039 11.8871 171.001 -15.2596 86.6729 -11.608 -5.33602 -0.210938 72.0898 -5.37021 -1.1421 23.2094 1.02549 4.9315 -2.02605 7.2533 -88.1764 12.4129 -3.15931 4.00313 0.739175 -2.98022 4.13809 -21.798 -4.21584 2.8691 -1.78537 -4.21582 2.8691 72.0233 -36.3648 -135.375 46.2139 -7.59048 6.40267 2.31491 -27.6017 -15.7475 -26.4317 -0.754041 -8.34129 -78.1092 -24.3986 96.34 -49.1315 -0.646154 12.282 10.5271 24.383 -20.0573 -2.84157 -0.050106 -13.1862 -9.69645 6.40645 -18.4037 -5.04367 7.11281 12.5505 
29.7387 102.318 -329.298 170.118 -77.1554 164.096 -173.544 -13.8453 90.1704 -8.65429 11.571 0.863054 68.6879 8.3535 -0.324437 24.0678 -6.65434 13.6582 170.286 -12.0882 86.2099 -15.871 -7.99538 0.711222 74.2416 -6.43246 -0.910068 22.6066 0.932623 6.40435 -1.84832 7.5547 -88.6544 11.8004 -3.0434 3.00545 0.129268 -2.90824 3.13641 -22.4207 -3.80571 1.95159 -2.40803 -3.80571 1.95159 76.0988 -31.9809 -131.541 46.249 -9.5412 3.27126 2.60483 -25.6785 -14.9609 -26.9151 -0.641825 -8.30223 -76.5115 -31.799 99.5227 -44.0267 0.946623 8.96981 10.5269 22.9515 -20.787 -3.42081 -0.00208225 -14.0147 -5.39217 6.22411 -10.9695 -5.46821 6.94553 9.25511 
28.9073 101.923 -330.34 171.622 -77.4503 167.039 -175.688 -4.52803 90.5683 -24.2769 5.33198 2.43682 71.1279 8.5289 -4.0881 23.5328 -6.70619 12.6402 170.192 -10.5032 87.3325 -17.6051 -8.12302 2.04965 75.1466 -6.87494 -0.235878 21.7413 0.890938 7.90299 -1.65339 7.92511 -89.363 11.0441 -2.996 1.55607 -0.62452 -2.92462 1.68648 -23.1857 -3.325 0.582903 -3.17304 -3.325 0.582899 80.464 -26.27 -127.466 46.2033 -12.1355 -0.523284 5.10678 -25.1908 -13.5037 -27.3225 -0.291802 -9.81785 -75.212 -41.1263 101.483 -37.6296 2.97403 6.13677 9.73195 18.7096 -22.2835 -0.396541 -0.230892 -12.6535 -1.36566 6.14519 -1.85937 -6.48853 6.15075 4.99564 
28.3067 102.779 -330.923 174.061 -78.2344 169.168 -179.17 6.11374 87.7932 -38.479 -8.76778 5.33346 72.052 0.556912 -25.9961 13.4324 -13.1345 10.8612 170.414 -11.7969 87.6354 -12.5805 -7.35059 1.88781 72.4664 -6.45512 0.897873 22.5437 0.345708 9.65732 -1.29105 8.18973 -89.8339 10.5012 -2.49532 0.553129 -1.16749 -2.46856 0.662483 -23.7219 -2.54613 -0.222886 -3.70923 -2.54613 -0.222888 83.5227 -21.4189 -124.714 46.8158 -10.9239 -2.32438 3.3024 -24.0503 -14.8737 -25.2098 -0.345211 -9.52733 -74.4896 -49.1497 102.201 -32.8524 4.52472 3.64139 8.81942 15.4786 -23.0074 0.530148 -0.246956 -10.4598 0.507723 5.89271 4.91722 -6.89857 5.08169 1.32827 
27.9911 102.452 -331.066 -171.661 -79.463 -177.916 -178.231 10.3882 84.7687 -34.2735 -2.04781 1.82299 69.5409 2.8741 -14.4309 19.1329 -8.95842 10.3115 170.683 -7.46235 86.4342 -18.2334 -10.3494 0.822339 74.1091 -6.89168 0.308038 22.8291 0.62777 7.7283 -0.730536 8.341 -90.1871 10.1912 -1.54096 -0.240871 -1.47882 -1.55007 -0.172808 -24.0203 -1.39732 -0.69294 -4.00765 -1.39731 -0.692937 86.536 -14.9055 -122.851 48.9256 -10.4954 -5.19984 3.23149 -22.5632 -13.7048 -25.3465 -0.285413 -9.37134 -74.1854 -57.0555 102.228 -28.4623 5.11587 2.65592 7.55047 13.2317 -22.1715 0.858147 -0.265883 -10.6491 1.31697 5.8508 13.5484 -6.72246 3.87359 -3.46239 
27.8019 101.906 -329.939 -164.417 -79.695 -171.125 -178.153 11.3492 82.0205 -21.5322 7.54046 -0.651156 65.4506 4.87576 -0.64064 19.4723 -7.80881 7.89772 171.007 -6.36189 86.3214 -21.0646 -10.4218 0.251325 76.2529 -7.61253 0.429799 23.8621 -0.159678 10.7012 0.156923 8.47026 -90.5007 9.9327 0.0853593 -1.00058 -1.73864 0.0412537 -1.00337 -24.2711 0.382121 -0.928669 -4.25841 0.382116 -0.928674 90.9011 -11.6314 -114.114 51.4102 -12.2038 -8.01955 3.41661 -23.95 -14.7321 -26.7774 -0.401129 -8.98799 -81.1687 -64.1205 92.8213 -22.1586 7.18542 3.02074 5.26885 11.5244 -20.0453 -1.03763 -0.14463 -9.01157 0.887941 3.25031 19.1278 -6.31229 0.656214 -7.16094 
27.4963 101.505 -327.361 -159.695 -80.3892 -165.672 -179.452 11.6389 81.2264 -9.19501 8.38158 -1.19771 63.5448 4.46395 0.0299994 19.5538 -7.60094 7.47041 171.645 -7.78358 87.3221 -20.1954 -10.1039 0.0243632 77.2518 -8.02278 0.682841 24.816 -0.244059 9.77415 1.07199 8.43521 -90.3644 10.0124 1.97067 -0.885739 -1.65747 1.92978 -0.97165 -24.2041 2.14574 -0.252297 -4.19147 2.14574 -0.252307 92.5096 -18.1211 -106.274 48.1023 -13.1018 -9.58145 2.96595 -24.295 -16.1622 -26.1491 -0.123191 -10.5903 -88.7946 -61.5236 82.5546 -21.931 6.9644 3.57466 4.24359 13.4904 -15.9001 -1.15982 -0.145208 -9.39389 -0.862898 -0.34626 13.8603 -4.98541 -2.02244 -5.67327 
27.0446 100.795 -323.927 -141.39 -79.9858 -146.356 -179.197 14.8297 81.8386 -7.75279 7.36322 -1.94371 63.8893 4.19089 0.752331 18.7999 -7.97293 7.15907 172.561 -8.81874 88.2306 -20.8823 -11.6308 -0.726366 78.97 -9.03304 1.11188 25.6791 -0.133706 7.70379 1.7136 8.40929 -90.1533 10.0666 3.3451 -0.58282 -1.60017 3.31621 -0.729644 -24.1701 3.36542 0.450648 -4.1574 3.36543 0.450643 92.5864 -24.7307 -103.38 43.6081 -13.4673 -12.3122 2.32682 -22.7991 -17.2373 -25.553 -0.156945 -10.0878 -90.9887 -59.1108 79.185 -21.7135 7.43362 3.52034 2.91418 14.2285 -12.573 -2.02737 -0.104388 -8.78178 -0.494041 -1.60947 9.98054 -4.26022 -2.84758 -4.79171 
26.624 99.6682 -318.299 -132.255 -79.7343 -135.886 -178.447 15.1707 82.1601 -9.5588 6.22236 -2.26127 62.4568 3.27504 -0.0441039 18.9756 -7.6262 6.5172 172.488 -12.8186 88.7723 -18.5945 -12.8563 -0.626017 80.5098 -10.5119 0.616586 28.8527 -0.723044 5.30728 1.58925 8.26745 -90.0494 10.3467 3.14361 -0.37074 -1.32058 3.12424 -0.508876 -23.8856 3.10955 0.592123 -3.87294 3.10955 0.592118 89.0973 -28.5795 -109.111 40.1036 -12.2022 -13.2555 3.11754 -21.2041 -16.6627 -23.3987 0.0996818 -11.4757 -89.0183 -57.563 81.5949 -24.3327 2.07438 4.96049 5.59469 16.5376 -11.8664 -2.9075 -0.0622238 -9.96035 -0.460155 -0.651948 8.04462 -3.40595 -1.69293 -3.46168 
26.07 99.2471 -311.467 -117.94 -77.8907 -121.564 -177.546 18.922 81.8173 -19.6283 4.09806 -2.39972 61.3552 0.590515 0.652645 11.9663 -11.4214 4.86431 172.01 -16.9114 87.5539 -15.6386 -15.047 -1.58204 76.5182 -8.74265 1.21581 36.2964 -3.01721 8.33948 1.61237 8.02723 -89.9022 10.8246 3.25571 -0.109071 -0.842322 3.24774 -0.252415 -23.4086 3.13781 0.875431 -3.39596 3.13781 0.875429 87.5581 -28.8479 -112.089 40.6412 -12.1864 -12.7531 3.31303 -20.6075 -16.0982 -21.9934 -0.245041 -9.50869 -87.7665 -57.6936 83.3438 -23.5196 4.5646 7.07923 3.98808 11.7255 -12.888 -2.6612 -0.0784941 -9.14055 1.67899 0.284819 7.74274 -4.09844 -0.850431 -3.34077 
